<svg viewBox="0 0 512 512" xmlns="http://www.w3.org/2000/svg"><path d="m512 256c0 141.386719-114.613281 256-256 256s-256-114.613281-256-256 114.613281-256 256-256 256 114.613281 256 256zm0 0" fill="#ff4545"/><path d="m512 256c0-11.808594-.816406-23.425781-2.363281-34.808594l-87.023438-87.019531-21.953125 46.488281-74.9375-74.941406-236.335937 249.339844 156.734375 156.734375c3.277344.125 6.570312.207031 9.878906.207031 141.386719 0 256-114.613281 256-256zm0 0" fill="#db0404"/><path d="m235.5 350.058594h41v34.769531h-41zm0 0" fill="#414952"/><path d="m256 350.058594h20.5v34.769531h-20.5zm0 0" fill="#2d2d2d"/><path d="m152.777344 373.328125h206.445312v23h-206.445312zm0 0" fill="#2d2d2d"/><path d="m256 373.328125h103.222656v23h-103.222656zm0 0" fill="#1e1d1e"/><path d="m94.386719 139.171875h323.226562v210.886719h-323.226562zm0 0" fill="#414952"/><path d="m256 139.171875h161.613281v210.886719h-161.613281zm0 0" fill="#23272b"/><path d="m422.613281 355.058594h-333.226562v-220.886719h333.226562zm-323.226562-10h313.226562v-200.886719h-313.226562zm0 0" fill="#2d2d2d"/><path d="m422.613281 134.171875h-167.007812v10h157.007812v200.886719h-156.613281v10h166.613281zm0 0" fill="#1e1d1e"/><path d="m355 176c0 54.675781-44.324219 99-99 99s-99-44.324219-99-99 44.324219-99 99-99 99 44.324219 99 99zm0 0" fill="#fff"/><path d="m256 77c-.132812 0-.261719.003906 0 .003906v197.992188c-.261719 0-.132812.003906 0 .003906 54.675781 0 99-44.324219 99-99s-44.324219-99-99-99zm0 0" fill="#dce1eb"/><path d="m256 140.371094-33.882812 24.617187 12.941406 39.835938h41.882812l12.941406-39.835938zm0 0" fill="#7e8596"/><path d="m256 204.824219h20.941406l12.941406-39.835938-33.882812-24.617187zm0 0" fill="#707789"/><path d="m225.210938 81.890625-3.09375 9.519531 33.882812 24.621094 33.882812-24.621094-3.09375-9.519531c-9.691406-3.171875-20.039062-4.890625-30.789062-4.890625s-21.097656 1.71875-30.789062 4.890625zm0 0" fill="#7e8596"/><path d="m256 116.03125 33.882812-24.621094-3.09375-9.519531c-9.691406-3.171875-20.039062-4.890625-30.789062-4.890625zm0 0" fill="#707789"/><path d="m156.980469 176.199219 8.101562 5.886719 33.882813-24.617188-12.941406-39.832031h-10.011719c-6.011719 8.234375-10.84375 17.546875-14.164063 27.769531-3.324218 10.226562-4.886718 20.597656-4.867187 30.792969zm0 0" fill="#7e8596"/><path d="m225.59375 270.234375 8.097656-5.882813-12.941406-39.835937h-41.882812l-3.09375 9.523437c5.976562 8.261719 13.335937 15.734376 22.035156 22.054688 8.699218 6.316406 18.082031 11.007812 27.785156 14.140625zm0 0" fill="#7e8596"/><g fill="#707789"><path d="m335.988281 117.636719h-10.011719l-12.941406 39.832031 33.882813 24.617188 8.101562-5.886719c.019531-10.195313-1.542969-20.566407-4.867187-30.792969-3.320313-10.222656-8.152344-19.53125-14.164063-27.769531zm0 0"/><path d="m336.226562 234.039062-3.09375-9.523437h-41.882812l-12.941406 39.835937 8.097656 5.882813c9.703125-3.132813 19.085938-7.824219 27.785156-14.140625 8.695313-6.320312 16.054688-13.792969 22.035156-22.054688zm0 0"/></g></svg>